<?xml version="1.0" encoding="UTF-8" standalone="no"?>
<!-- Created with Inkscape (http://www.inkscape.org/) -->

<svg
   width="326.42453mm"
   height="169.50142mm"
   viewBox="0 0 326.42453 169.50142"
   version="1.1"
   id="svg1"
   inkscape:version="1.4 (e7c3feb1, 2024-10-09)"
   sodipodi:docname="logo.svg"
   xmlns:inkscape="http://www.inkscape.org/namespaces/inkscape"
   xmlns:sodipodi="http://sodipodi.sourceforge.net/DTD/sodipodi-0.dtd"
   xmlns="http://www.w3.org/2000/svg"
   xmlns:svg="http://www.w3.org/2000/svg">
  <sodipodi:namedview
     id="namedview1"
     pagecolor="#505050"
     bordercolor="#eeeeee"
     borderopacity="1"
     inkscape:showpageshadow="0"
     inkscape:pageopacity="0"
     inkscape:pagecheckerboard="0"
     inkscape:deskcolor="#505050"
     inkscape:document-units="mm"
     inkscape:zoom="0.37059484"
     inkscape:cx="630.06813"
     inkscape:cy="187.53634"
     inkscape:window-width="1792"
     inkscape:window-height="996"
     inkscape:window-x="0"
     inkscape:window-y="25"
     inkscape:window-maximized="1"
     inkscape:current-layer="layer1" />
  <defs
     id="defs1">
    <rect
       x="154.55058"
       y="386.37646"
       width="282.38873"
       height="138.33232"
       id="rect1" />
    <filter
       style="color-interpolation-filters:sRGB"
       inkscape:label="Drop Shadow"
       id="filter36"
       x="0"
       y="0"
       width="1.0105599"
       height="1.0376807">
      <feFlood
         result="flood"
         in="SourceGraphic"
         flood-opacity="0.498039"
         flood-color="rgb(0,0,0)"
         id="feFlood35" />
      <feGaussianBlur
         result="blur"
         in="SourceGraphic"
         stdDeviation="0.000000"
         id="feGaussianBlur35" />
      <feOffset
         result="offset"
         in="blur"
         dx="1.359517"
         dy="1.661631"
         id="feOffset35" />
      <feComposite
         result="comp1"
         operator="in"
         in="flood"
         in2="offset"
         id="feComposite35" />
      <feComposite
         result="comp2"
         operator="over"
         in="SourceGraphic"
         in2="comp1"
         id="feComposite36" />
    </filter>
    <filter
       style="color-interpolation-filters:sRGB"
       inkscape:label="Drop Shadow"
       id="filter38"
       x="0"
       y="0"
       width="1.289266"
       height="1.3557055">
      <feFlood
         result="flood"
         in="SourceGraphic"
         flood-opacity="0.498039"
         flood-color="rgb(0,0,0)"
         id="feFlood36" />
      <feGaussianBlur
         result="blur"
         in="SourceGraphic"
         stdDeviation="0.000000"
         id="feGaussianBlur36" />
      <feOffset
         result="offset"
         in="blur"
         dx="1.359517"
         dy="1.661631"
         id="feOffset36" />
      <feComposite
         result="comp1"
         operator="in"
         in="flood"
         in2="offset"
         id="feComposite37" />
      <feComposite
         result="comp2"
         operator="over"
         in="SourceGraphic"
         in2="comp1"
         id="feComposite38" />
    </filter>
  </defs>
  <g
     inkscape:label="Layer 1"
     inkscape:groupmode="layer"
     id="layer1"
     transform="translate(56.329308,-58.703608)">
    <ellipse
       style="fill:#ffff00;stroke-width:0.931769"
       id="path1"
       ry="78.669762"
       rx="166.22874"
       cy="163.10011"
       cx="73.494637"
       transform="rotate(-12.431717)" />
    <path
       style="font-size:29.3333px;line-height:0.7;font-family:'ITC Fenice Std';-inkscape-font-specification:'ITC Fenice Std';text-align:center;text-anchor:middle;white-space:pre;fill:#ff0000;filter:url(#filter36)"
       d="m 233.74922,385.41864 h 1.52534 l 2.11199,19.65331 h 1.76 l 10.38399,-19.65331 h 1.34933 l 0.14667,-0.64533 h -4.51733 l -0.14667,0.64533 h 2.40533 l -8.53599,15.92799 h -0.0587 l -1.672,-15.92799 h 2.52266 l 0.14667,-0.64533 h -7.27466 z m 16.42665,10.09066 c 2.288,-4.10666 3.08,-5.16266 5.13333,-5.16266 1.55466,0 2.376,0.76266 1.99466,2.61066 l -0.67466,3.08 c -3.28533,1.78933 -9.03466,0.29333 -10.11999,5.42666 -0.528,2.552 0.968,4.07733 3.608,4.07733 2.08266,0 4.01866,-1.232 5.10399,-3.05067 h 0.0587 l -0.55734,2.58133 h 3.98933 l 0.14667,-0.64533 h -1.408 l 2.31733,-10.97065 c 0.38133,-1.81867 -0.85066,-3.75466 -4.51733,-3.75466 -1.55466,0 -3.05066,0.43999 -4.69332,1.05599 l -1.02667,4.752 z m 5.83733,3.51999 c -0.704,3.22667 -2.61066,5.39733 -4.84,5.456 -1.55466,0 -2.19999,-0.82133 -1.73066,-3.02133 0.90933,-4.224 3.40266,-3.10933 7.03999,-4.664 z m 7.56796,-8.21332 h 1.584 l -2.87466,13.61065 h -1.584 l -0.14667,0.64533 h 6.04266 l 0.14667,-0.64533 h -1.70133 l 1.936,-9.21065 c 0.67466,-3.05067 2.46399,-4.45867 4.07733,-4.45867 1.37866,0 1.87733,0.73334 1.43733,2.904 l -2.288,10.76532 h -1.70133 l -0.14667,0.64533 h 6.04266 l 0.14667,-0.64533 h -1.584 l 2.2,-10.41332 c 0.67466,-3.19733 -0.73334,-4.31199 -3.05067,-4.31199 -2.05333,0 -3.66666,1.20266 -4.63466,2.46399 h -0.0587 l 0.41066,-1.99466 h -4.10666 z m 17.864,7.09866 c 1.26134,-5.95466 2.728,-7.39199 4.45867,-7.39199 1.93599,0 2.69866,2.112 1.58399,7.39199 -0.99733,4.69333 -2.58133,6.98132 -4.54666,6.98132 -1.87733,0 -2.63999,-1.64266 -1.496,-6.98132 z m 8.50666,7.15732 0.14667,-0.64533 h -1.408 l 4.16533,-19.65331 h -4.16533 l -0.14667,0.64533 h 1.408 l -1.37866,6.54133 h -0.0587 c -0.38133,-1.43733 -1.408,-2.25866 -2.87466,-2.25866 -3.02133,0 -6.10133,2.84533 -7.18666,7.94932 -1.08533,5.10399 1.02666,7.89066 3.78399,7.89066 2.024,0 3.22667,-0.93867 4.048,-2.25867 h 0.0587 l -0.38134,1.78933 z m 15.69329,-8.85865 c 0.88,-4.16533 -0.76267,-6.51199 -4.10666,-6.51199 -3.46133,0 -6.98133,3.22666 -7.97866,7.91999 -0.99733,4.69332 0.99733,7.91999 4.72266,7.91999 2.992,0 5.77866,-1.99467 6.77599,-6.04266 h -0.64533 c -1.056,3.63733 -3.168,5.22132 -5.66133,5.22132 -2.22933,0 -3.22666,-1.96533 -2.024,-7.62665 0.0587,-0.29334 0.11734,-0.58667 0.20534,-0.88 z m -8.53599,-0.64533 c 0.968,-3.40267 2.43466,-5.22133 4.25333,-5.22133 1.52533,0 2.22933,1.144 1.61333,4.07733 l -0.23467,1.144 z m 17.92264,-10.79466 h -4.16533 l -0.14666,0.64533 h 1.408 l -4.01867,19.00798 h -1.408 l -0.14666,0.64533 h 5.57333 l 0.14666,-0.64533 h -1.408 z m 4.16533,10.73599 c 2.288,-4.10666 3.08,-5.16266 5.13333,-5.16266 1.55466,0 2.37599,0.76266 1.99466,2.61066 l -0.67467,3.08 c -3.28533,1.78933 -9.03465,0.29333 -10.11998,5.42666 -0.528,2.552 0.968,4.07733 3.60799,4.07733 2.08267,0 4.01866,-1.232 5.104,-3.05067 h 0.0587 l -0.55733,2.58133 h 3.98933 l 0.14667,-0.64533 h -1.408 l 2.31733,-10.97065 c 0.38133,-1.81867 -0.85067,-3.75466 -4.51733,-3.75466 -1.55467,0 -3.05066,0.43999 -4.69333,1.05599 l -1.02666,4.752 z m 5.83733,3.51999 c -0.704,3.22667 -2.61067,5.39733 -4.84,5.456 -1.55466,0 -2.2,-0.82133 -1.73066,-3.02133 0.90933,-4.224 3.40266,-3.10933 7.03999,-4.664 z m 6.62929,-8.21332 h 1.11467 l 2.90399,14.16798 c -1.26133,2.52267 -2.61066,4.54667 -3.78399,4.54667 -0.46933,0 -0.88,-0.264 -0.968,-1.78934 l -0.20533,-2.84533 h -0.64534 l -0.968,4.576 c 0.32267,0.44 0.99734,0.704 2.08267,0.704 1.672,0 2.728,-0.64533 4.51733,-3.90133 l 8.65332,-15.45865 h 1.32 l 0.14667,-0.64533 h -4.69333 l -0.14667,0.64533 h 2.552 l -5.69066,10.23732 -2.112,-10.23732 h 2.2 l 0.14666,-0.64533 h -6.27732 z m 19.06666,8.27199 -1.08533,5.16266 c 1.32,0.85067 3.08,1.29067 4.60533,1.29067 3.52,0 6.51199,-1.99467 7.15733,-4.98666 1.08533,-5.13333 -8.272,-3.872 -7.48,-7.568 0.32267,-1.61333 2.31733,-2.63999 4.16533,-2.63999 2.08267,0 2.22933,0.76266 2.58133,5.10399 h 0.82134 l 0.99733,-4.72266 c -0.99733,-0.58667 -2.43467,-1.02666 -4.01866,-1.02666 -3.37333,0 -6.10133,1.75999 -6.74666,4.69332 -1.056,4.95733 8.18399,4.34133 7.56799,7.18666 -0.44,2.14133 -2.40533,3.31466 -4.69333,3.31466 -2.64,0 -3.02133,-0.87999 -3.05066,-5.80799 z m -76.86786,9.015 -0.14667,0.64533 h 2.112 l -4.01866,19.00798 h -2.112 l -0.14667,0.64533 h 5.22133 l 0.14667,-0.64533 h -2.288 l 3.96,-18.71464 h 0.0587 l 2.05333,19.35997 h 0.99734 l 10.55998,-19.35997 h 0.0587 l -3.96,18.71464 h -2.81599 l -0.14667,0.64533 h 7.86133 l 0.14666,-0.64533 h -1.87733 l 4.01866,-19.00798 h 1.87733 l 0.14667,-0.64533 h -5.48533 l -8.71199,15.95732 h -0.11733 l -1.672,-15.95732 z m 21.11996,12.84799 c -0.99733,4.69332 1.08533,7.91999 4.72266,7.91999 3.63733,0 7.06933,-3.22667 8.06666,-7.91999 0.99733,-4.69333 -1.08533,-7.91999 -4.72266,-7.91999 -3.63733,0 -7.06933,3.22666 -8.06666,7.91999 z m 3.05066,0 c 1.20267,-5.69066 2.69867,-7.27466 4.89867,-7.27466 2.19999,0 2.99199,1.584 1.78933,7.27466 -1.20267,5.69066 -2.69867,7.27466 -4.89866,7.27466 -2.2,0 -2.992,-1.584 -1.78934,-7.27466 z m 15.45863,0.29333 c 1.26133,-5.95466 2.72799,-7.39199 4.45866,-7.39199 1.936,0 2.69866,2.112 1.584,7.39199 -0.99733,4.69333 -2.58133,6.98133 -4.54666,6.98133 -1.87734,0 -2.64,-1.64267 -1.496,-6.98133 z m 8.50665,7.15732 0.14667,-0.64533 h -1.408 l 4.16533,-19.65331 h -4.16533 l -0.14666,0.64533 h 1.40799 l -1.37866,6.54133 h -0.0587 c -0.38133,-1.43733 -1.408,-2.25866 -2.87466,-2.25866 -3.02133,0 -6.10133,2.84533 -7.18666,7.94932 -1.08533,5.10399 1.02667,7.89066 3.784,7.89066 2.02399,0 3.22666,-0.93867 4.04799,-2.25867 h 0.0587 l -0.38133,1.78933 z"
       id="text1"
       transform="matrix(2.3472123,0,0,2.3472123,-588.43425,-808.96612)"
       aria-label="Vandelay's&#10;Mod"
       sodipodi:nodetypes="ccccccccccccccccccscccscccccccscccccccccccccccccsccccccccsccccccscsccccccccccssscccccsssccsccccscccccccccccccccscccscccccccscccccccccccsccccscccccccccccccccsccscccsccscccccccccccccccccccccccccccccccsssssssssscscsccccccccccssscccc" />
    <path
       sodipodi:type="star"
       style="fill:#00ffff;stroke-width:0.264583;filter:url(#filter38)"
       id="path2"
       inkscape:flatsided="true"
       sodipodi:sides="3"
       sodipodi:cx="113.11424"
       sodipodi:cy="106.96159"
       sodipodi:r1="2.800859"
       sodipodi:r2="1.4004295"
       sodipodi:arg1="1.8212394"
       sodipodi:arg2="2.868437"
       inkscape:rounded="0"
       inkscape:randomized="0"
       d="m 112.4201,109.67507 -1.30873,-4.67136 4.69989,1.20229 z"
       inkscape:transform-center-x="-0.95968903"
       inkscape:transform-center-y="1.941553"
       transform="matrix(2.7651023,0,0,5.1391337,-82.399856,-443.40364)" />
  </g>
</svg>
